<svg xmlns="http://www.w3.org/2000/svg" viewBox="0 0 512 512" width="512" height="512">
  <rect width="512" height="512" rx="96" fill="#163b3f"/>
  <g fill="#f6f7f4">
    <path d="M120 132c0-13.3 10.7-24 24-24h120c30.9 0 56 25.1 56 56v220c0 8.8-7.2 16-16 16H160c-22.1 0-40 17.9-40 40V132z"/>
    <path d="M280 108h88c13.3 0 24 10.7 24 24v300c0 8.8-7.2 16-16 16H280V108z" opacity="0.62"/>
  </g>
  <g stroke="#163b3f" stroke-width="14" fill="none" opacity="0.55">
    <line x1="160" y1="178" x2="248" y2="178"/>
    <line x1="160" y1="220" x2="248" y2="220"/>
    <line x1="160" y1="262" x2="232" y2="262"/>
    <line x1="160" y1="304" x2="248" y2="304"/>
  </g>
</svg>
